<?xml version="1.0" encoding="UTF-8"?>
<!DOCTYPE svg PUBLIC "-//W3C//DTD SVG 1.1//EN" "http://www.w3.org/Graphics/SVG/1.1/DTD/svg11.dtd">
<svg xmlns="http://www.w3.org/2000/svg" version="1.1" width="723px" height="723px" style="shape-rendering:geometricPrecision; text-rendering:geometricPrecision; image-rendering:optimizeQuality; fill-rule:evenodd; clip-rule:evenodd" xmlns:xlink="http://www.w3.org/1999/xlink">
<g><path style="opacity:1" fill="#57aad1" d="M 272.5,34.5 C 392.833,34.5 513.167,34.5 633.5,34.5C 514.505,36.4981 395.171,37.1648 275.5,36.5C 274.5,35.8333 273.5,35.1667 272.5,34.5 Z"/></g>
<g><path style="opacity:1" fill="#25a7e0" d="M 633.5,34.5 C 640.755,34.1868 647.921,34.5201 655,35.5C 655.5,73.1652 655.667,110.832 655.5,148.5C 654.668,126.004 654.168,103.337 654,80.5C 653.833,102.841 653.333,125.174 652.5,147.5C 651.667,111.171 651.167,74.8379 651,38.5C 650.5,75.1652 650.333,111.832 650.5,148.5C 523.833,148.5 397.167,148.5 270.5,148.5C 270.333,111.832 270.5,75.1652 271,38.5C 271.333,38.8333 271.667,39.1667 272,39.5C 274.405,38.7256 276.905,38.2256 279.5,38C 276.5,37.6667 273.5,37.3333 270.5,37C 272.134,36.5065 273.801,36.3398 275.5,36.5C 395.171,37.1648 514.505,36.4981 633.5,34.5 Z"/></g>
<g><path style="opacity:1" fill="#125c75" d="M 265.5,151.5 C 267.219,152.022 268.552,153.022 269.5,154.5C 267.801,154.34 266.134,154.506 264.5,155C 211.158,208.51 157.824,261.676 104.5,314.5C 103.333,274.838 103.167,235.171 104,195.5C 155.818,143.182 207.984,90.8484 260.5,38.5C 261.822,38.67 262.989,38.3366 264,37.5C 264.167,75.6689 264.667,113.669 265.5,151.5 Z"/></g>
<g><path style="opacity:1" fill="#24a7d9" d="M 272.5,34.5 C 273.5,35.1667 274.5,35.8333 275.5,36.5C 273.801,36.3398 272.134,36.5065 270.5,37C 273.5,37.3333 276.5,37.6667 279.5,38C 276.905,38.2256 274.405,38.7256 272,39.5C 271.667,39.1667 271.333,38.8333 271,38.5C 270.5,75.1652 270.333,111.832 270.5,148.5C 397.167,148.5 523.833,148.5 650.5,148.5C 650.333,111.832 650.5,75.1652 651,38.5C 651.167,74.8379 651.667,111.171 652.5,147.5C 653.333,125.174 653.833,102.841 654,80.5C 654.168,103.337 654.668,126.004 655.5,148.5C 655.5,149.5 655.5,150.5 655.5,151.5C 525.594,151.509 395.594,151.509 265.5,151.5C 264.667,113.669 264.167,75.6689 264,37.5C 262.989,38.3366 261.822,38.67 260.5,38.5C 263.59,34.9205 267.59,33.5872 272.5,34.5 Z"/></g>
<g><path style="opacity:1" fill="#25a5ca" d="M 265.5,151.5 C 395.594,151.509 525.594,151.509 655.5,151.5C 655.586,152.496 655.252,153.329 654.5,154C 526.167,154.5 397.834,154.667 269.5,154.5C 268.552,153.022 267.219,152.022 265.5,151.5 Z"/></g>
<g><path style="opacity:1" fill="#010102" d="M 265.5,165.5 C 285.169,165.333 304.836,165.5 324.5,166C 326.871,168.674 328.037,171.841 328,175.5C 328.799,180.087 328.632,184.587 327.5,189C 316.521,188.361 305.521,188.028 294.5,188C 292.543,190.121 292.043,192.621 293,195.5C 293.5,196.667 294.333,197.5 295.5,198C 304.846,198.008 314.179,197.508 323.5,196.5C 324.167,196.833 324.833,197.167 325.5,197.5C 325.744,205.093 325.744,212.76 325.5,220.5C 315.547,220.509 305.713,220.176 296,219.5C 295.127,219.735 294.293,220.069 293.5,220.5C 292.167,223.5 292.167,226.5 293.5,229.5C 294.5,230 295.5,230.5 296.5,231C 307.837,231.367 319.171,231.2 330.5,230.5C 330.631,236.221 330.131,241.888 329,247.5C 328.907,250.007 328.074,252.174 326.5,254C 306.175,253.826 285.842,253.659 265.5,253.5C 266.68,224.164 266.68,194.83 265.5,165.5 Z"/></g>
<g><path style="opacity:1" fill="#010101" d="M 541.5,171.5 C 548.35,173.461 555.35,174.628 562.5,175C 563.804,175.804 564.471,176.971 564.5,178.5C 563.439,183.467 563.272,188.467 564,193.5C 568.966,193.362 573.966,193.695 579,194.5C 579.667,200.833 579.667,207.167 579,213.5C 574.251,214.305 569.418,214.805 564.5,215C 562.959,220.933 563.293,226.767 565.5,232.5C 570.483,233.503 575.483,233.503 580.5,232.5C 580.666,237.511 580.499,242.511 580,247.5C 578.199,250.163 575.699,251.997 572.5,253C 563.822,256.241 555.155,256.241 546.5,253C 544.667,251.167 542.833,249.333 541,247.5C 540.5,236.505 540.333,225.505 540.5,214.5C 538.208,214.756 536.041,214.423 534,213.5C 533.333,207.833 533.333,202.167 534,196.5C 535.785,195.76 537.618,195.093 539.5,194.5C 540.738,189.166 540.738,183.832 539.5,178.5C 540.019,176.087 540.685,173.754 541.5,171.5 Z"/></g>
<g><path style="opacity:1" fill="#010101" d="M 422.5,189.5 C 439.564,186.284 452.064,192.284 460,207.5C 460.594,211.321 461.094,215.155 461.5,219C 461.554,221.873 460.888,224.54 459.5,227C 447.862,228.149 436.196,229.483 424.5,231C 427.207,234.683 430.874,236.183 435.5,235.5C 440.732,235.7 445.399,234.2 449.5,231C 450.5,230.333 451.5,230.333 452.5,231C 455.42,235.504 458.086,240.171 460.5,245C 454.002,252.938 445.502,256.438 435,255.5C 413.283,255.408 401.783,244.574 400.5,223C 400.536,206.7 407.869,195.533 422.5,189.5 Z M 427.5,207.5 C 433.54,206.88 436.874,209.547 437.5,215.5C 432.828,216.003 428.161,216.169 423.5,216C 423.024,212.446 424.357,209.612 427.5,207.5 Z"/></g>
<g><path style="opacity:1" fill="#010101" d="M 506.5,190.5 C 515.27,189.917 522.437,192.917 528,199.5C 529.46,217.431 529.96,235.431 529.5,253.5C 521.5,254.833 513.5,254.833 505.5,253.5C 505.667,240.829 505.5,228.162 505,215.5C 501.594,211.856 497.761,211.523 493.5,214.5C 492.808,215.025 492.308,215.692 492,216.5C 491.667,228.5 491.333,240.5 491,252.5C 490.25,253.126 489.416,253.626 488.5,254C 482.833,254.667 477.167,254.667 471.5,254C 468.531,253.862 466.865,252.362 466.5,249.5C 468.131,232.069 467.465,214.736 464.5,197.5C 465.28,195.545 466.78,194.545 469,194.5C 476.133,193.173 483.3,192.173 490.5,191.5C 490.337,193.857 490.503,196.19 491,198.5C 495.899,195.135 501.065,192.468 506.5,190.5 Z"/></g>
<g><path style="opacity:1" fill="#010101" d="M 334.5,193.5 C 342.42,193.185 350.253,193.518 358,194.5C 358.333,202.5 358.667,210.5 359,218.5C 360.815,222.796 363.148,226.796 366,230.5C 368.838,226.828 371.171,222.828 373,218.5C 373.333,210.5 373.667,202.5 374,194.5C 381.333,193.167 388.667,193.167 396,194.5C 398.265,205.601 397.931,216.601 395,227.5C 389.167,236 383.333,244.5 377.5,253C 371.224,254.424 364.891,254.758 358.5,254C 355.461,252.969 352.961,251.135 351,248.5C 345.755,241.014 340.755,233.347 336,225.5C 333.502,214.871 333.002,204.204 334.5,193.5 Z"/></g>
<g><path style="opacity:1" fill="#010101" d="M 583.5,193.5 C 591.223,193.2 598.89,193.533 606.5,194.5C 606.568,202.86 607.068,211.193 608,219.5C 610.084,223.336 612.417,227.003 615,230.5C 618.662,226.503 620.995,221.836 622,216.5C 622.505,209.461 622.505,202.461 622,195.5C 622.5,195 623,194.5 623.5,194C 631.08,193.187 638.58,193.353 646,194.5C 647.97,204.825 647.97,215.158 646,225.5C 636.45,242.516 625.283,258.349 612.5,273C 604.889,274.478 597.222,274.812 589.5,274C 586.596,268.967 584.262,263.633 582.5,258C 582.645,257.228 582.978,256.561 583.5,256C 588.959,255.642 594.292,254.642 599.5,253C 600.059,252.275 600.392,251.442 600.5,250.5C 594.431,241.373 588.598,232.04 583,222.5C 582.194,212.756 582.361,203.089 583.5,193.5 Z"/></g>
<g><path style="opacity:1" fill="#48b5e2" d="M 552.5,274.5 C 551.167,274.833 549.833,275.167 548.5,275.5C 467.167,275.5 385.833,275.5 304.5,275.5C 291.388,275.605 278.388,275.605 265.5,275.5C 264.833,275.5 264.5,275.167 264.5,274.5C 360.5,273.167 456.5,273.167 552.5,274.5 Z"/></g>
<g><path style="opacity:1" fill="#23a2e4" d="M 304.5,275.5 C 385.833,275.5 467.167,275.5 548.5,275.5C 548.918,276.222 549.584,276.722 550.5,277C 460.501,277.5 370.501,277.667 280.5,277.5C 288.5,276.833 296.5,276.167 304.5,275.5 Z"/></g>
<g><path style="opacity:1" fill="#22a6e0" d="M 265.5,275.5 C 278.388,275.605 291.388,275.605 304.5,275.5C 296.5,276.167 288.5,276.833 280.5,277.5C 363.905,278.042 453.905,278.875 550.5,280C 456.828,279.835 363.495,280.668 270.5,282.5C 269.761,282.369 269.094,282.536 268.5,283C 269.496,318.76 269.83,354.594 269.5,390.5C 268.167,390.5 266.833,390.5 265.5,390.5C 265.832,354.329 265.498,318.329 264.5,282.5C 264.993,280.194 265.326,277.861 265.5,275.5 Z"/></g>
<g><path style="opacity:1" fill="#26a7d9" d="M 552.5,274.5 C 552.5,313.5 552.5,352.5 552.5,391.5C 551.691,389.708 551.191,387.708 551,385.5C 549.559,387.305 549.392,389.305 550.5,391.5C 455.317,390.504 360.317,390.171 265.5,390.5C 266.833,390.5 268.167,390.5 269.5,390.5C 269.83,354.594 269.496,318.76 268.5,283C 269.094,282.536 269.761,282.369 270.5,282.5C 363.495,280.668 456.828,279.835 550.5,280C 453.905,278.875 363.905,278.042 280.5,277.5C 370.501,277.667 460.501,277.5 550.5,277C 549.584,276.722 548.918,276.222 548.5,275.5C 549.833,275.167 551.167,274.833 552.5,274.5 Z"/></g>
<g><path style="opacity:1" fill="#24a8e1" d="M 270.5,282.5 C 363.167,282.5 455.833,282.5 548.5,282.5C 548.667,317.168 548.5,351.835 548,386.5C 547.581,387.672 546.915,388.672 546,389.5C 545,388.167 544,386.833 543,385.5C 542.5,386 542,386.5 541.5,387C 451.167,387.5 360.834,387.667 270.5,387.5C 270.5,352.5 270.5,317.5 270.5,282.5 Z"/></g>
<g><path style="opacity:1" fill="#125c75" d="M 264.5,274.5 C 264.5,275.167 264.833,275.5 265.5,275.5C 265.326,277.861 264.993,280.194 264.5,282.5C 264.173,319.573 264.507,356.573 265.5,393.5C 212.192,446.307 158.692,499.64 105,553.5C 104.667,553.167 104.333,552.833 104,552.5C 103.333,513.167 103.333,473.833 104,434.5C 157.47,380.863 210.97,327.53 264.5,274.5 Z"/></g>
<g><path style="opacity:1" fill="#3da5cf" d="M 264.5,282.5 C 265.498,318.329 265.832,354.329 265.5,390.5C 360.317,390.171 455.317,390.504 550.5,391.5C 549.392,389.305 549.559,387.305 551,385.5C 551.191,387.708 551.691,389.708 552.5,391.5C 552.389,392.117 552.056,392.617 551.5,393C 456.049,393.489 360.716,393.656 265.5,393.5C 264.507,356.573 264.173,319.573 264.5,282.5 Z"/></g>
<g><path style="opacity:1" fill="#010101" d="M 285.5,423.5 C 293.324,423.032 300.991,423.865 308.5,426C 321.224,432.34 324.724,442.174 319,455.5C 317.5,457.667 315.667,459.5 313.5,461C 328.171,471.733 329.171,483.733 316.5,497C 305.953,503.167 294.62,505.167 282.5,503C 276.76,501.649 271.093,500.149 265.5,498.5C 265.991,491.529 267.991,485.029 271.5,479C 275.842,479.549 280.176,480.549 284.5,482C 289.109,483.074 293.276,482.24 297,479.5C 297.402,478.128 297.902,476.795 298.5,475.5C 297.352,473.851 296.019,472.351 294.5,471C 287.45,470.798 280.45,470.298 273.5,469.5C 272,464.012 272.333,458.679 274.5,453.5C 279.387,452.714 284.22,453.047 289,454.5C 294.606,451.009 294.772,447.509 289.5,444C 283.081,443.611 276.748,443.944 270.5,445C 268.716,439.989 268.216,434.822 269,429.5C 269.833,428 271,426.833 272.5,426C 277.047,425.571 281.381,424.738 285.5,423.5 Z"/></g>
<g><path style="opacity:1" fill="#000101" d="M 368.5,422.5 C 372.106,422.211 375.606,422.544 379,423.5C 380.383,427.934 382.05,432.268 384,436.5C 384.825,438.701 384.325,440.534 382.5,442C 376.479,442.871 370.479,443.871 364.5,445C 362.545,445.953 360.878,447.287 359.5,449C 384.724,446.224 395.891,457.391 393,482.5C 388.462,494.706 379.628,501.539 366.5,503C 345.6,505.097 332.766,495.93 328,475.5C 325.733,459.634 330.233,446.134 341.5,435C 349.489,428.616 358.489,424.45 368.5,422.5 Z M 357.5,464.5 C 366.986,463.818 371.153,468.152 370,477.5C 364.247,485.393 358.581,485.393 353,477.5C 351.381,471.968 352.881,467.634 357.5,464.5 Z"/></g>
<g><path style="opacity:1" fill="#000101" d="M 428.5,423.5 C 453.505,422.239 468.005,433.906 472,458.5C 473.338,481.35 463.171,496.183 441.5,503C 413.743,503.774 398.743,490.274 396.5,462.5C 398.046,441.62 408.712,428.62 428.5,423.5 Z M 433.5,448.5 C 442.027,449.528 446.694,454.362 447.5,463C 447.063,469.011 444.396,473.678 439.5,477C 431.581,479.123 426.081,476.29 423,468.5C 420.573,458.34 424.073,451.673 433.5,448.5 Z"/></g>
<g><path style="opacity:1" fill="#3aaece" d="M 279.5,520.5 C 346.833,520.5 414.167,520.5 481.5,520.5C 481.5,521.833 481.5,523.167 481.5,524.5C 480.833,561.5 480.167,598.5 479.5,635.5C 479.832,597.996 479.498,560.663 478.5,523.5C 411.001,522.667 343.335,522.167 275.5,522C 277.058,521.79 278.391,521.29 279.5,520.5 Z"/></g>
<g><path style="opacity:1" fill="#24a7e0" d="M 478.5,523.5 C 479.498,560.663 479.832,597.996 479.5,635.5C 475.049,636.827 470.216,637.494 465,637.5C 459.75,637.47 454.75,636.804 450,635.5C 389.067,636.134 327.567,636.301 265.5,636C 266.167,599.333 266.833,562.667 267.5,526C 265.441,524.815 265.274,523.648 267,522.5C 337.471,523.495 407.971,523.828 478.5,523.5 Z"/></g>
<g><path style="opacity:1" fill="#135c75" d="M 261.5,523.5 C 261.905,524.55 262.571,524.55 263.5,523.5C 264.178,562.204 264.845,600.87 265.5,639.5C 226.167,639.5 186.833,639.5 147.5,639.5C 184.059,600.267 222.059,561.6 261.5,523.5 Z"/></g>
<g><path style="opacity:1" fill="#22a2d2" d="M 279.5,520.5 C 278.391,521.29 277.058,521.79 275.5,522C 343.335,522.167 411.001,522.667 478.5,523.5C 407.971,523.828 337.471,523.495 267,522.5C 265.274,523.648 265.441,524.815 267.5,526C 266.833,562.667 266.167,599.333 265.5,636C 327.567,636.301 389.067,636.134 450,635.5C 454.75,636.804 459.75,637.47 465,637.5C 470.216,637.494 475.049,636.827 479.5,635.5C 480.167,598.5 480.833,561.5 481.5,524.5C 481.5,562.833 481.5,601.167 481.5,639.5C 409.5,639.5 337.5,639.5 265.5,639.5C 264.845,600.87 264.178,562.204 263.5,523.5C 262.571,524.55 261.905,524.55 261.5,523.5C 261.953,522.542 262.619,521.708 263.5,521C 268.823,520.501 274.156,520.334 279.5,520.5 Z"/></g>
</svg>
